<svg xmlns="http://www.w3.org/2000/svg" xmlns:xlink="http://www.w3.org/1999/xlink" width="500" zoomAndPan="magnify" viewBox="0 0 375 374.999991" height="500" preserveAspectRatio="xMidYMid meet" version="1.0"><defs><clipPath id="1450fffab7"><path d="M 180 213 L 213.296875 213 L 213.296875 223 L 180 223 Z M 180 213 " clip-rule="nonzero"/></clipPath><clipPath id="907238a706"><path d="M 133 260 L 143 260 L 143 293.066406 L 133 293.066406 Z M 133 260 " clip-rule="nonzero"/></clipPath><clipPath id="dc95088647"><path d="M 63.296875 213 L 96 213 L 96 223 L 63.296875 223 Z M 63.296875 213 " clip-rule="nonzero"/></clipPath><clipPath id="d87ef3345f"><path d="M 133 143.066406 L 143 143.066406 L 143 176 L 133 176 Z M 133 143.066406 " clip-rule="nonzero"/></clipPath><clipPath id="91e29a1acc"><path d="M 17.109375 1 L 356 1 L 356 374 L 17.109375 374 Z M 17.109375 1 " clip-rule="nonzero"/></clipPath></defs><path fill="#040606" d="M 138.296875 187.835938 L 138.296875 248.363281 C 97.984375 248.320312 97.984375 187.796875 138.296875 187.835938 Z M 137.324219 184.640625 C 119.226562 185.175781 104.832031 199.996094 104.832031 218.09375 C 104.496094 263.050781 172.105469 263.050781 171.773438 218.09375 C 171.773438 199.222656 156.179688 184.082031 137.324219 184.640625 " fill-opacity="1" fill-rule="nonzero"/><path fill="#040606" d="M 135.417969 191.914062 L 135.417969 244.289062 C 128.015625 243.488281 121.648438 241.34375 117.773438 236.976562 C 113.257812 231.890625 110.941406 225.003906 110.941406 218.078125 C 110.941406 211.15625 113.257812 204.269531 117.773438 199.195312 C 121.648438 194.828125 128.015625 192.699219 135.417969 191.914062 Z M 141.171875 188.957031 C 156.433594 190.648438 168.882812 202.285156 168.882812 218.105469 L 168.882812 218.121094 C 168.964844 228.640625 165.183594 236.152344 159.496094 241.238281 C 154.582031 245.632812 147.84375 247.285156 141.171875 247.894531 Z M 137.230469 181.75 C 117.613281 182.324219 101.953125 198.449219 101.941406 218.078125 C 101.859375 230.039062 106.386719 239.375 113.273438 245.527344 C 120.15625 251.679688 129.238281 254.6875 138.296875 254.6875 C 147.351562 254.6875 156.445312 251.679688 163.316406 245.527344 C 170.1875 239.375 174.730469 230.050781 174.636719 218.105469 C 174.648438 197.640625 157.671875 181.152344 137.230469 181.75 " fill-opacity="1" fill-rule="nonzero"/><path fill="#040606" d="M 187.035156 167.089844 L 170.335938 183.800781 C 168.84375 185.320312 171.082031 187.570312 172.597656 186.066406 L 189.296875 169.367188 C 190.722656 167.847656 188.539062 165.679688 187.035156 167.089844 " fill-opacity="1" fill-rule="nonzero"/><path fill="#040606" d="M 188.445312 163.773438 C 187.273438 163.679688 185.941406 164.160156 185.050781 165 L 185.023438 165.027344 L 185.011719 165.050781 L 168.269531 181.777344 C 167.40625 182.671875 166.898438 184.003906 166.964844 185.1875 C 167.046875 186.371094 167.566406 187.386719 168.296875 188.117188 C 169.042969 188.851562 170.042969 189.382812 171.226562 189.449219 C 172.425781 189.515625 173.730469 188.996094 174.625 188.117188 L 174.636719 188.117188 L 191.375 171.363281 L 191.390625 171.339844 C 192.242188 170.445312 192.707031 169.152344 192.628906 167.980469 C 192.546875 166.808594 192.027344 165.824219 191.296875 165.105469 C 190.578125 164.375 189.605469 163.855469 188.445312 163.773438 " fill-opacity="1" fill-rule="nonzero"/><path fill="#040606" d="M 208.820312 216.496094 L 185.195312 216.496094 C 183.078125 216.523438 183.078125 219.679688 185.195312 219.691406 L 208.820312 219.691406 C 210.9375 219.679688 210.9375 216.507812 208.820312 216.496094 " fill-opacity="1" fill-rule="nonzero"/><g clip-path="url(#1450fffab7)"><path fill="#040606" d="M 185.171875 213.59375 C 183.933594 213.605469 182.625 214.203125 181.839844 215.097656 C 181.042969 215.988281 180.722656 217.066406 180.722656 218.105469 C 180.722656 219.132812 181.042969 220.210938 181.839844 221.101562 C 182.625 221.996094 183.933594 222.566406 185.171875 222.582031 L 208.847656 222.582031 C 210.085938 222.566406 211.402344 221.996094 212.175781 221.101562 C 212.976562 220.210938 213.296875 219.132812 213.296875 218.105469 C 213.296875 217.066406 212.976562 215.988281 212.175781 215.097656 C 211.402344 214.203125 210.085938 213.605469 208.847656 213.59375 L 185.171875 213.59375 " fill-opacity="1" fill-rule="nonzero"/></g><path fill="#040606" d="M 189.296875 266.832031 L 172.597656 250.121094 C 171.082031 248.628906 168.84375 250.878906 170.335938 252.382812 L 187.035156 269.097656 C 188.539062 270.507812 190.722656 268.335938 189.296875 266.832031 " fill-opacity="1" fill-rule="nonzero"/><path fill="#040606" d="M 171.226562 246.75 C 170.042969 246.832031 169.042969 247.351562 168.296875 248.082031 C 167.578125 248.816406 167.046875 249.828125 166.964844 251.011719 C 166.898438 252.210938 167.40625 253.515625 168.285156 254.40625 L 168.285156 254.433594 L 185.035156 271.171875 L 185.050781 271.199219 C 185.941406 272.039062 187.273438 272.519531 188.445312 272.4375 C 189.605469 272.34375 190.578125 271.828125 191.296875 271.105469 C 192.027344 270.375 192.546875 269.390625 192.628906 268.21875 C 192.707031 267.058594 192.242188 265.753906 191.402344 264.863281 L 191.375 264.835938 L 191.335938 264.78125 L 174.625 248.082031 L 174.625 248.054688 C 173.730469 247.175781 172.425781 246.683594 171.226562 246.75 " fill-opacity="1" fill-rule="nonzero"/><path fill="#040606" d="M 139.90625 288.617188 L 139.90625 264.996094 C 139.90625 262.851562 136.695312 262.851562 136.695312 264.996094 L 136.695312 288.617188 C 136.695312 290.75 139.90625 290.75 139.90625 288.617188 " fill-opacity="1" fill-rule="nonzero"/><g clip-path="url(#907238a706)"><path fill="#040606" d="M 138.296875 260.507812 C 137.257812 260.507812 136.191406 260.839844 135.300781 261.640625 C 134.394531 262.4375 133.820312 263.742188 133.820312 265.007812 L 133.820312 288.617188 C 133.820312 289.882812 134.394531 291.1875 135.300781 291.988281 C 136.191406 292.785156 137.257812 293.105469 138.296875 293.105469 C 139.332031 293.105469 140.425781 292.785156 141.316406 291.988281 C 142.222656 291.1875 142.796875 289.882812 142.796875 288.617188 L 142.796875 264.980469 C 142.796875 263.730469 142.222656 262.4375 141.316406 261.640625 C 140.425781 260.839844 139.332031 260.507812 138.296875 260.507812 " fill-opacity="1" fill-rule="nonzero"/></g><path fill="#040606" d="M 89.570312 269.097656 L 106.269531 252.382812 C 107.691406 250.878906 105.523438 248.707031 104.003906 250.121094 L 87.304688 266.832031 C 85.878906 268.335938 88.050781 270.507812 89.570312 269.097656 " fill-opacity="1" fill-rule="nonzero"/><path fill="#040606" d="M 105.402344 246.777344 C 104.246094 246.699219 102.9375 247.175781 102.046875 248.015625 L 101.992188 248.070312 L 85.214844 264.835938 L 85.203125 264.863281 C 84.347656 265.753906 83.882812 267.058594 83.960938 268.230469 C 84.042969 269.390625 84.5625 270.375 85.292969 271.105469 C 86.027344 271.828125 87.011719 272.34375 88.171875 272.4375 C 89.34375 272.519531 90.632812 272.039062 91.539062 271.199219 L 91.566406 271.171875 L 91.605469 271.121094 L 108.332031 254.40625 L 108.386719 254.355469 C 109.226562 253.460938 109.703125 252.15625 109.609375 250.984375 C 109.53125 249.828125 109.011719 248.839844 108.292969 248.109375 C 107.558594 247.390625 106.574219 246.855469 105.402344 246.777344 " fill-opacity="1" fill-rule="nonzero"/><path fill="#040606" d="M 67.769531 219.691406 L 91.40625 219.691406 C 93.523438 219.679688 93.523438 216.507812 91.40625 216.496094 L 67.769531 216.496094 C 65.664062 216.523438 65.664062 219.679688 67.769531 219.691406 " fill-opacity="1" fill-rule="nonzero"/><g clip-path="url(#dc95088647)"><path fill="#040606" d="M 67.742188 213.59375 C 66.503906 213.605469 65.210938 214.203125 64.425781 215.097656 C 63.640625 215.988281 63.296875 217.066406 63.296875 218.105469 C 63.296875 219.132812 63.640625 220.210938 64.425781 221.101562 C 65.210938 221.996094 66.503906 222.566406 67.742188 222.582031 L 91.445312 222.582031 C 92.683594 222.566406 93.976562 221.996094 94.761719 221.101562 C 95.546875 220.210938 95.867188 219.132812 95.867188 218.105469 C 95.867188 217.066406 95.546875 215.988281 94.761719 215.097656 C 93.976562 214.203125 92.683594 213.605469 91.445312 213.59375 L 67.742188 213.59375 " fill-opacity="1" fill-rule="nonzero"/></g><path fill="#040606" d="M 87.304688 169.367188 L 104.003906 186.066406 C 105.523438 187.492188 107.691406 185.308594 106.269531 183.800781 L 89.570312 167.089844 C 88.050781 165.679688 85.878906 167.847656 87.304688 169.367188 " fill-opacity="1" fill-rule="nonzero"/><path fill="#040606" d="M 88.171875 163.773438 C 87.011719 163.855469 86.027344 164.375 85.292969 165.09375 C 84.5625 165.824219 84.042969 166.808594 83.960938 167.980469 C 83.882812 169.152344 84.347656 170.445312 85.203125 171.339844 L 85.214844 171.363281 L 85.269531 171.390625 L 101.992188 188.144531 L 102.046875 188.171875 C 102.9375 189.007812 104.230469 189.488281 105.402344 189.394531 C 106.574219 189.316406 107.558594 188.796875 108.292969 188.0625 C 109.011719 187.34375 109.53125 186.359375 109.609375 185.1875 C 109.703125 184.015625 109.226562 182.722656 108.386719 181.820312 L 108.332031 181.804688 L 91.566406 165.027344 L 91.539062 165 C 90.632812 164.160156 89.34375 163.679688 88.171875 163.773438 " fill-opacity="1" fill-rule="nonzero"/><path fill="#040606" d="M 136.695312 147.566406 L 136.695312 171.203125 C 136.695312 173.335938 139.90625 173.335938 139.90625 171.203125 L 139.90625 147.566406 C 139.90625 145.4375 136.695312 145.4375 136.695312 147.566406 " fill-opacity="1" fill-rule="nonzero"/><g clip-path="url(#d87ef3345f)"><path fill="#040606" d="M 138.296875 143.078125 C 137.257812 143.078125 136.191406 143.414062 135.300781 144.210938 C 134.394531 145.011719 133.820312 146.316406 133.820312 147.582031 L 133.820312 171.191406 C 133.820312 172.457031 134.394531 173.761719 135.300781 174.5625 C 136.191406 175.359375 137.257812 175.679688 138.296875 175.679688 C 139.332031 175.679688 140.425781 175.359375 141.316406 174.5625 C 142.222656 173.761719 142.796875 172.457031 142.796875 171.191406 L 142.796875 147.582031 C 142.796875 146.316406 142.222656 145.011719 141.316406 144.210938 C 140.425781 143.414062 139.332031 143.078125 138.296875 143.078125 " fill-opacity="1" fill-rule="nonzero"/></g><g clip-path="url(#91e29a1acc)"><path fill="#000000" d="M 203.445312 1.003906 C 100.53125 1.003906 17.101562 84.5 17.101562 187.5 C 17.101562 290.5 100.53125 373.996094 203.445312 373.996094 C 264.421875 373.996094 318.558594 344.667969 352.527344 299.410156 C 356.382812 294.269531 357.003906 287.394531 354.136719 281.648438 C 351.265625 275.902344 345.402344 272.269531 338.980469 272.269531 C 268.808594 272.269531 211.917969 215.339844 211.917969 145.113281 C 211.917969 101.792969 233.546875 63.523438 266.664062 40.539062 C 271.9375 36.882812 274.691406 30.554688 273.78125 24.203125 C 272.871094 17.847656 268.449219 12.550781 262.363281 10.523438 C 243.824219 4.34375 224.007812 1.003906 203.445312 1.003906 Z M 203.445312 1.003906 " fill-opacity="1" fill-rule="evenodd"/></g></svg>